<svg width="26" height="27" viewBox="0 0 26 27" fill="none" xmlns="http://www.w3.org/2000/svg">
<path d="M9.54417 2.73804L5.6225 6.67054" stroke="black" stroke-width="2" stroke-miterlimit="10" stroke-linecap="round" stroke-linejoin="round"/>
<path d="M16.4558 2.73804L20.3775 6.67054" stroke="black" stroke-width="2" stroke-miterlimit="10" stroke-linecap="round" stroke-linejoin="round"/>
<path d="M2.16669 9.0756C2.16669 7.07144 3.23919 6.90894 4.57169 6.90894H21.4284C22.7609 6.90894 23.8334 7.07144 23.8334 9.0756C23.8334 11.4048 22.7609 11.2423 21.4284 11.2423H4.57169C3.23919 11.2423 2.16669 11.4048 2.16669 9.0756Z" stroke="black" stroke-width="2"/>
<path d="M10.5734 15.738V19.5839" stroke="black" stroke-width="2" stroke-linecap="round"/>
<path d="M15.5566 15.738V19.5839" stroke="black" stroke-width="2" stroke-linecap="round"/>
<path d="M3.79169 11.4048L5.31919 20.7648C5.66585 22.8665 6.50002 24.4048 9.59835 24.4048H16.1309C19.5 24.4048 19.9984 22.9315 20.3884 20.8948L22.2084 11.4048" stroke="black" stroke-width="2" stroke-linecap="round"/>
</svg>
