<svg width="100" height="58" viewBox="0 0 100 58" fill="none" xmlns="http://www.w3.org/2000/svg">
<g clip-path="url(#clip0_101_533)">
<path d="M13.9647 14.719C13.9647 18.6554 11.7549 19.9818 7.03807 19.9818C2.32126 19.9818 0 18.4201 0 13.9488L3.43547 13.3712C3.43547 17.0081 3.43547 19.554 7.03807 19.554C10.6407 19.554 12.4048 18.7624 12.4048 15.4891C12.4048 13.1572 10.195 12.2801 6.4624 11.6383C1.85701 10.8467 0.371402 9.28494 0.371402 6.03308C0.371402 2.78123 3.21263 1.30505 6.29526 1.30505C10.6407 1.30505 13.1848 2.84541 13.1848 6.80326L10.065 7.29532C10.065 3.85092 9.93501 1.71154 6.29526 1.71154C4.04828 1.71154 1.70845 2.54589 1.70845 4.98479C1.70845 6.48235 2.78552 7.63762 6.49954 8.23665C12.9991 9.26355 13.9647 11.8308 13.9647 14.719Z" fill="black"/>
<path d="M22.767 6.41809C26.481 6.41809 29.805 8.75002 29.805 13.2641C29.805 17.7782 26.4067 20.0673 22.767 20.0673C19.1272 20.0673 15.7289 17.6712 15.7289 13.1785C15.7289 8.68583 19.1086 6.41809 22.767 6.41809ZM19.0529 13.2641C19.0529 17.5429 19.8143 19.6823 22.767 19.6823C25.7196 19.6823 26.481 17.6712 26.481 13.2641C26.481 8.85698 25.4782 6.84597 22.767 6.84597C20.0557 6.84597 18.9786 8.75002 18.9786 13.1785L19.0529 13.2641Z" fill="black"/>
<path d="M31.3835 13.0074C31.3835 7.31668 34.8747 6.41814 38.533 6.41814C39.8212 6.40189 41.0943 6.73923 42.247 7.40226V0H45.4039V19.5967H42.247V13.0288C42.1537 13.8118 42.0047 14.5846 41.8013 15.3394C40.8542 18.5698 39.6843 19.9818 37.1402 19.9818C33.9833 19.9818 31.3835 18.5056 31.3835 13.0074ZM34.6333 13.0074C34.6333 16.7514 35.2646 19.4256 37.6788 19.4256C41.857 19.4256 42.2284 11.1676 42.2656 7.76595C41.2468 7.18156 40.134 6.84649 38.9972 6.78184C36.3046 6.78184 34.6333 7.57341 34.6333 12.986V13.0074Z" fill="black"/>
<path d="M47.3352 14.9756C47.3286 13.9244 47.6581 12.9072 48.2609 12.118C48.8637 11.3289 49.6976 10.823 50.6035 10.6969L48.2823 9.34904C48.9879 8.02263 50.7521 6.41809 54.8004 6.41809C57.493 6.41809 60.8356 7.18827 60.8356 11.6382V19.5753H57.6602V13.1571V13.4567C57.1959 16.8369 56.1188 20.0032 52.6277 20.0032C49.6007 19.9818 47.3352 19.126 47.3352 14.9756ZM50.5849 15.2323C50.5849 18.5912 51.2535 19.6181 52.5719 19.6181C56.6574 19.6181 57.2888 14.5691 57.5487 10.868H53.2962C51.4949 10.8038 50.5849 11.9591 50.5849 15.1682V15.2323ZM52.5719 10.4401H57.5673C57.5673 7.80869 57.4187 6.7176 54.6147 6.7176C52.2191 6.7176 51.4577 9.88389 51.4577 10.5043C51.8267 10.4368 52.1987 10.394 52.5719 10.3759V10.4401Z" fill="black"/>
<path d="M3.28692 32.4972V38.5088C3.78832 35.1714 4.7911 32.0907 8.26371 32.0907C11.7363 32.0907 14.3918 33.5027 14.3918 37.974C14.4921 39.3335 14.1448 40.6868 13.4189 41.7649C12.693 42.843 11.6415 43.567 10.4736 43.7931L14.299 50.361H10.6964L6.98237 44.1996H3.26835V50.3824H0.130005V32.4972H3.28692ZM3.28692 43.7717H6.51812C8.67225 43.7717 11.1606 43.408 11.1606 37.9954C11.1606 34.658 11.0307 32.2191 7.70661 32.5828C6.85478 32.6795 6.05183 33.0862 5.41411 33.744C4.77639 34.4018 4.33703 35.2764 4.15972 36.2411C3.58517 38.6968 3.29176 41.2284 3.28692 43.7717V43.7717Z" fill="black"/>
<path d="M15.506 43.9856C15.506 39.5571 18.7372 37.161 22.2656 37.161C26.9267 37.161 27.428 40.9049 27.428 45.1837H18.8487C18.9787 47.6868 19.6657 50.361 22.2656 50.361C24.1912 50.4132 26.067 49.6523 27.5395 48.2216L27.7066 48.4783C26.9792 49.2555 26.1257 49.8597 25.1952 50.2562C24.2647 50.6527 23.2755 50.8337 22.2841 50.7889C18.0501 50.7889 15.506 47.9007 15.506 43.9856ZM18.8301 44.7558H27.0381C27.0381 40.9049 26.351 37.5889 22.2656 37.5889C19.0715 37.5889 18.7372 42.0388 18.8301 44.7558V44.7558Z" fill="black"/>
<path d="M29.3965 37.5461H32.5534V44.0926C32.6467 43.3167 32.7957 42.551 32.9991 41.8035C33.9276 38.573 35.1346 37.1396 37.6416 37.1396C40.8357 37.1396 43.4541 38.6372 43.4541 44.1568C43.4541 49.6764 39.9443 50.8103 36.3046 50.8103C35.0201 50.8081 33.752 50.4794 32.5905 49.8476V57.1429H29.4336L29.3965 37.5461ZM32.5534 49.3341C33.5497 49.9521 34.6542 50.3031 35.7846 50.361C38.5515 50.361 40.1857 49.5694 40.1857 44.1568C40.1857 40.4129 39.5172 37.6317 37.1216 37.6317C35.6546 37.6317 34.0762 38.9367 33.4076 42.0388C32.8507 44.4179 32.5636 46.8701 32.5534 49.3341V49.3341Z" fill="black"/>
<path d="M48.5237 37.5461V46.6813C48.5237 49.4839 49.0808 50.3824 50.3807 50.3824C54.8932 50.3824 55.4689 41.3115 55.4689 37.5461H58.6258V50.3824H55.4689V42.9374C55.0046 46.1251 53.8161 50.8103 50.4178 50.8103C47.5952 50.8103 45.311 49.7406 45.311 43.4722V37.5461H48.5237Z" fill="black"/>
<path d="M60.9099 30.8071H64.0668V38.1238C65.2187 37.4584 66.4924 37.121 67.7809 37.1397C71.4949 37.1397 74.9303 38.1238 74.9303 43.8146C74.9303 49.5053 72.3305 50.7889 69.1179 50.7889C66.6295 50.7889 65.4039 49.377 64.4939 46.1465C64.2906 45.3917 64.1415 44.6189 64.0483 43.836V50.4039H60.9099V30.8071ZM64.9953 45.9967C65.7196 49.1202 67.2609 50.2755 68.7094 50.2755C71.1049 50.2755 71.7734 47.4729 71.7734 43.729C71.7734 38.3164 70.1207 37.5676 67.3723 37.5676C66.23 37.6113 65.1169 37.9945 64.1411 38.6801C64.1484 41.1514 64.4356 43.611 64.9953 45.9967V45.9967Z" fill="black"/>
<path d="M80.0186 31.3206V50.3824H76.8616V31.3206H80.0186Z" fill="black"/>
<path d="M82.247 32.8609C82.247 32.2935 82.4427 31.7494 82.7909 31.3482C83.1392 30.947 83.6115 30.7216 84.104 30.7216C84.5965 30.7216 85.0689 30.947 85.4171 31.3482C85.7654 31.7494 85.961 32.2935 85.961 32.8609C85.961 33.4283 85.7654 33.9725 85.4171 34.3737C85.0689 34.7749 84.5965 35.0003 84.104 35.0003C83.6115 35.0003 83.1392 34.7749 82.7909 34.3737C82.4427 33.9725 82.247 33.4283 82.247 32.8609ZM82.5256 37.5462H85.6825V50.3825H82.5256V37.5462Z" fill="black"/>
<path d="M87.7994 43.9856C87.7994 40.0492 90.5292 37.161 94.5404 37.161C97.6045 37.161 99.0901 38.7869 99.3315 40.6696H98.9601C98.7187 39.0009 97.5487 37.5033 94.5404 37.5033C92.3863 37.5033 91.0863 39.6427 91.0863 43.9215C91.0863 47.5156 91.9034 50.3396 94.5404 50.3396C96.4719 50.3931 98.3539 49.6323 99.8329 48.2002L100 48.4569C99.2675 49.2384 98.4079 49.8449 97.4708 50.2415C96.5338 50.638 95.5378 50.8168 94.5404 50.7675C90.3435 50.7889 87.7994 47.9007 87.7994 43.9856Z" fill="black"/>
</g>
<defs>
<clipPath id="clip0_101_533">
<rect width="100" height="57.1429" fill="white"/>
</clipPath>
</defs>
</svg>
