<svg width="20" height="21" viewBox="0 0 20 21" fill="none" xmlns="http://www.w3.org/2000/svg">
<path d="M14.7167 19.0345C14.275 19.0345 13.7083 18.8928 13 18.4761L10.5083 17.0011C10.25 16.8511 9.75 16.8511 9.5 17.0011L7 18.4761C5.525 19.3511 4.65833 19.0011 4.26666 18.7178C3.88333 18.4345 3.28333 17.7095 3.675 16.0428L4.26666 13.4845C4.33333 13.2178 4.2 12.7595 4 12.5595L1.93333 10.4928C0.899996 9.45947 0.98333 8.57613 1.125 8.1428C1.26666 7.70947 1.71666 6.9428 3.15 6.70113L5.80833 6.25946C6.05833 6.2178 6.41666 5.95113 6.525 5.72613L8 2.78446C8.66666 1.4428 9.54166 1.2428 10 1.2428C10.4583 1.2428 11.3333 1.4428 12 2.78446L13.4667 5.7178C13.5833 5.9428 13.9417 6.20946 14.1917 6.25113L16.85 6.6928C18.2917 6.93446 18.7417 7.70113 18.875 8.13446C19.0083 8.5678 19.0917 9.45113 18.0667 10.4845L16 12.5595C15.8 12.7595 15.675 13.2095 15.7333 13.4845L16.325 16.0428C16.7083 17.7095 16.1167 18.4345 15.7333 18.7178C15.525 18.8678 15.1917 19.0345 14.7167 19.0345ZM10 15.6345C10.4083 15.6345 10.8167 15.7345 11.1417 15.9261L13.6333 17.4011C14.3583 17.8345 14.8167 17.8345 14.9917 17.7095C15.1667 17.5845 15.2917 17.1428 15.1083 16.3261L14.5167 13.7678C14.3583 13.0761 14.6167 12.1845 15.1167 11.6761L17.1833 9.60946C17.5917 9.20113 17.775 8.80113 17.6917 8.52613C17.6 8.25113 17.2167 8.02613 16.65 7.93446L13.9917 7.4928C13.35 7.38446 12.65 6.8678 12.3583 6.28446L10.8917 3.35113C10.625 2.8178 10.2917 2.50113 10 2.50113C9.70833 2.50113 9.375 2.8178 9.11666 3.35113L7.64166 6.28446C7.35 6.8678 6.65 7.38446 6.00833 7.4928L3.35833 7.93446C2.79166 8.02613 2.40833 8.25113 2.31666 8.52613C2.225 8.80113 2.41666 9.20946 2.825 9.60946L4.89166 11.6761C5.39166 12.1761 5.65 13.0761 5.49166 13.7678L4.9 16.3261C4.70833 17.1511 4.84166 17.5845 5.01666 17.7095C5.19166 17.8345 5.64166 17.8261 6.375 17.4011L8.86666 15.9261C9.18333 15.7345 9.59166 15.6345 10 15.6345Z" fill="#F3CD03"/>
</svg>
