<svg width="20" height="21" viewBox="0 0 20 21" fill="none" xmlns="http://www.w3.org/2000/svg">
<path d="M11.4416 3.06777L12.9083 6.00111C13.1083 6.40944 13.6416 6.80111 14.0916 6.87611L16.7499 7.31777C18.4499 7.60111 18.8499 8.83444 17.6249 10.0511L15.5583 12.1178C15.2083 12.4678 15.0166 13.1428 15.1249 13.6261L15.7166 16.1844C16.1833 18.2094 15.1083 18.9928 13.3166 17.9344L10.8249 16.4594C10.3749 16.1928 9.63326 16.1928 9.17492 16.4594L6.68326 17.9344C4.89992 18.9928 3.81659 18.2011 4.28326 16.1844L4.87492 13.6261C4.98326 13.1428 4.79159 12.4678 4.44159 12.1178L2.37492 10.0511C1.15826 8.83444 1.54992 7.60111 3.24992 7.31777L5.90826 6.87611C6.34992 6.80111 6.88326 6.40944 7.08326 6.00111L8.54992 3.06777C9.34992 1.47611 10.6499 1.47611 11.4416 3.06777Z" fill="#F3CD03"/>
</svg>
