<svg width="22" height="23" viewBox="0 0 22 23" fill="none" xmlns="http://www.w3.org/2000/svg">
<g clip-path="url(#clip0_127_314)">
<path d="M0.5 10.7028C0.5 8.19962 0.50106 6.37186 0.688812 4.97472C0.874648 3.59183 1.23506 2.70626 1.89946 2.04275C2.56419 1.3789 3.45016 1.01847 4.83276 0.832389C6.22962 0.644393 8.05693 0.642822 10.56 0.642822H11.44C13.9432 0.642822 15.771 0.643883 17.1681 0.831635C18.551 1.01747 19.4366 1.37789 20.1001 2.04228L20.4539 1.68896L20.1001 2.04228C20.7639 2.70701 21.1244 3.59298 21.3104 4.97558C21.4984 6.37244 21.5 8.19975 21.5 10.7028V11.5828C21.5 14.086 21.4989 15.9138 21.3112 17.3109C21.1254 18.6938 20.7649 19.5794 20.1005 20.2429C19.4358 20.9067 18.5498 21.2672 17.1672 21.4533C15.7704 21.6413 13.9431 21.6428 11.44 21.6428H10.56C8.0568 21.6428 6.22904 21.6418 4.83189 21.454C3.44901 21.2682 2.56344 20.9078 1.89993 20.2434C1.23608 19.5786 0.875643 18.6927 0.689566 17.3101C0.501571 15.9132 0.5 14.0859 0.5 11.5828V10.7028Z" stroke="black"/>
<path fill-rule="evenodd" clip-rule="evenodd" d="M11 5.0083C12.6659 5.0083 12.8746 5.01546 13.5295 5.04514C14.0383 5.05547 14.5418 5.152 15.0183 5.33063C15.4259 5.48793 15.7961 5.72879 16.105 6.03772C16.4139 6.34665 16.6548 6.71681 16.8121 7.12439C16.9907 7.60097 17.0873 8.10438 17.0976 8.61323C17.1273 9.26811 17.1344 9.47686 17.1344 11.1427C17.1344 12.8086 17.1273 13.0173 17.0976 13.6722C17.0873 14.1811 16.9907 14.6845 16.8121 15.161C16.6548 15.5686 16.4139 15.9388 16.105 16.2477C15.7961 16.5566 15.4259 16.7975 15.0183 16.9548C14.5418 17.1334 14.0383 17.23 13.5295 17.2403C12.8746 17.27 12.6659 17.2771 11 17.2771C9.33415 17.2771 9.1254 17.27 8.47052 17.2403C7.96167 17.23 7.45826 17.1334 6.98168 16.9548C6.57409 16.7975 6.20393 16.5566 5.89501 16.2477C5.58608 15.9388 5.34522 15.5686 5.18791 15.161C5.00928 14.6845 4.91275 14.1811 4.90242 13.6722C4.87275 13.0173 4.86559 12.8086 4.86559 11.1427C4.86559 9.47686 4.87275 9.26811 4.90242 8.61323C4.91275 8.10438 5.00928 7.60097 5.18791 7.12439C5.34522 6.71681 5.58608 6.34665 5.89501 6.03772C6.20393 5.72879 6.57409 5.48793 6.98168 5.33063C7.45826 5.152 7.96167 5.05547 8.47052 5.04514C9.1254 5.01546 9.33415 5.0083 11 5.0083ZM13.4783 6.14923C12.8316 6.11956 12.6382 6.11342 11 6.11342C9.36177 6.11342 9.16838 6.11956 8.52168 6.14923C8.13235 6.15371 7.74672 6.22537 7.38177 6.36105C7.11732 6.46292 6.87716 6.61909 6.67677 6.81948C6.47638 7.01987 6.32021 7.26004 6.21833 7.52449C6.08265 7.88944 6.011 8.27507 6.00652 8.66439C5.97684 9.31109 5.9707 9.50449 5.9707 11.1427C5.9707 12.781 5.97684 12.9743 6.00652 13.621C6.011 14.0104 6.08265 14.396 6.21833 14.761C6.32021 15.0254 6.47638 15.2656 6.67677 15.466C6.87716 15.6663 7.11732 15.8225 7.38177 15.9244C7.74672 16.0601 8.13235 16.1317 8.52168 16.1362C9.16838 16.1659 9.36177 16.172 11 16.172C12.6382 16.172 12.8316 16.1659 13.4783 16.1362C13.8677 16.1317 14.2533 16.0601 14.6182 15.9244C14.8827 15.8225 15.1229 15.6663 15.3232 15.466C15.5236 15.2656 15.6798 15.0254 15.7817 14.761C15.9174 14.396 15.989 14.0104 15.9935 13.621C16.0232 12.9743 16.0293 12.781 16.0293 11.1427C16.0293 9.50449 16.0232 9.31109 15.9935 8.66439C15.989 8.27507 15.9174 7.88944 15.7817 7.52449C15.6798 7.26004 15.5236 7.01987 15.3232 6.81948C15.1229 6.61909 14.8827 6.46292 14.6182 6.36105C14.2533 6.22537 13.8677 6.15371 13.4783 6.14923ZM11 13.1872C11.4048 13.1872 11.8004 13.0672 12.137 12.8423C12.4735 12.6174 12.7358 12.2978 12.8907 11.9238C13.0456 11.5499 13.0862 11.1384 13.0072 10.7414C12.9282 10.3444 12.7333 9.97978 12.4471 9.69357C12.1609 9.40736 11.7962 9.21245 11.3993 9.13348C11.0023 9.05452 10.5908 9.09505 10.2168 9.24994C9.84289 9.40484 9.52327 9.66715 9.29839 10.0037C9.07352 10.3402 8.95349 10.7359 8.95349 11.1407C8.95349 11.6834 9.16911 12.204 9.5529 12.5878C9.9367 12.9716 10.4572 13.1872 11 13.1872ZM11 7.99211C11.6231 7.99211 12.2323 8.17689 12.7504 8.52309C13.2685 8.86928 13.6723 9.36134 13.9108 9.93704C14.1492 10.5127 14.2116 11.1462 14.0901 11.7574C13.9685 12.3685 13.6684 12.9299 13.2278 13.3705C12.7872 13.8112 12.2258 14.1112 11.6147 14.2328C11.0035 14.3544 10.37 14.292 9.79432 14.0535C9.21862 13.815 8.72657 13.4112 8.38037 12.8931C8.03418 12.375 7.8494 11.7659 7.8494 11.1427C7.8494 10.729 7.93089 10.3193 8.08923 9.93704C8.24756 9.55479 8.47963 9.20747 8.77219 8.91491C9.36304 8.32405 10.1644 7.99211 11 7.99211ZM15.0112 7.8683C15.0112 8.01402 14.968 8.15646 14.887 8.27761C14.806 8.39877 14.691 8.4932 14.5564 8.54896C14.4217 8.60473 14.2736 8.61932 14.1307 8.59089C13.9878 8.56246 13.8565 8.49229 13.7535 8.38926C13.6504 8.28622 13.5803 8.15495 13.5518 8.01203C13.5234 7.86912 13.538 7.72098 13.5938 7.58636C13.6495 7.45174 13.744 7.33668 13.8651 7.25572C13.9863 7.17477 14.1287 7.13156 14.2744 7.13156C14.4698 7.13156 14.6572 7.20918 14.7954 7.34734C14.9335 7.48551 15.0112 7.6729 15.0112 7.8683Z" fill="black"/>
</g>
<defs>
<clipPath id="clip0_127_314">
<rect width="22" height="22" fill="white" transform="translate(0 0.142822)"/>
</clipPath>
</defs>
</svg>
