<svg width="22" height="23" viewBox="0 0 22 23" fill="none" xmlns="http://www.w3.org/2000/svg">
<g clip-path="url(#clip0_127_322)">
<path d="M0.5 10.7028C0.5 8.19962 0.50106 6.37186 0.688812 4.97472C0.874648 3.59183 1.23506 2.70626 1.89946 2.04275C2.56419 1.3789 3.45016 1.01847 4.83276 0.832389C6.22962 0.644393 8.05693 0.642822 10.56 0.642822H11.44C13.9432 0.642822 15.771 0.643883 17.1681 0.831635C18.551 1.01747 19.4366 1.37789 20.1001 2.04228L20.4539 1.68896L20.1001 2.04228C20.7639 2.70701 21.1244 3.59298 21.3104 4.97558C21.4984 6.37244 21.5 8.19975 21.5 10.7028V11.5828C21.5 14.086 21.4989 15.9138 21.3112 17.3109C21.1254 18.6938 20.7649 19.5794 20.1005 20.2429C19.4358 20.9067 18.5498 21.2672 17.1672 21.4533C15.7704 21.6413 13.9431 21.6428 11.44 21.6428H10.56C8.0568 21.6428 6.22904 21.6418 4.83189 21.454C3.44901 21.2682 2.56344 20.9078 1.89993 20.2434C1.23608 19.5786 0.875643 18.6927 0.689566 17.3101C0.501571 15.9132 0.5 14.0859 0.5 11.5828V10.7028Z" stroke="black"/>
<path fill-rule="evenodd" clip-rule="evenodd" d="M4.53199 10.8869C8.04995 9.35411 10.3959 8.34348 11.5699 7.85504C14.9221 6.46035 15.6179 6.21783 16.0723 6.21067C16.2391 6.20671 16.4028 6.2558 16.5399 6.35086C16.6358 6.4345 16.6971 6.55088 16.7118 6.67728C16.7362 6.83463 16.7431 6.99422 16.7323 7.15309C16.5501 9.06146 15.7643 13.6927 15.3642 15.8293C15.1953 16.7338 14.8628 17.0377 14.5394 17.0674C13.8385 17.1319 13.3064 16.6039 12.628 16.1588C11.5659 15.4629 10.9652 15.0332 9.93479 14.3496C8.74269 13.5648 9.51525 13.133 10.1947 12.428C10.3727 12.2428 13.4599 9.43393 13.5203 9.17914C13.528 9.14172 13.527 9.10302 13.5172 9.06609C13.5074 9.02915 13.4892 8.99499 13.464 8.9663C13.4273 8.94264 13.3856 8.92807 13.3421 8.92379C13.2987 8.91952 13.2549 8.92568 13.2143 8.94174C13.1079 8.9663 11.411 10.0878 8.12362 12.3062C7.64133 12.6377 7.20508 12.7991 6.81488 12.7902C6.38306 12.781 5.55423 12.5467 4.93823 12.3461C4.18306 12.1005 3.58241 11.9706 3.6346 11.5531C3.66121 11.3348 3.96033 11.1127 4.53199 10.8869Z" fill="black"/>
</g>
<defs>
<clipPath id="clip0_127_322">
<rect width="22" height="22" fill="white" transform="translate(0 0.142822)"/>
</clipPath>
</defs>
</svg>
