<svg width="22" height="23" viewBox="0 0 22 23" fill="none" xmlns="http://www.w3.org/2000/svg">
<path d="M0.5 10.7028C0.5 8.19962 0.501061 6.37186 0.688813 4.97472C0.874649 3.59183 1.23507 2.70626 1.89946 2.04275C2.56419 1.3789 3.45016 1.01847 4.83276 0.832389C6.22962 0.644393 8.05693 0.642822 10.56 0.642822H11.44C13.9432 0.642822 15.771 0.643883 17.1681 0.831635C18.551 1.01747 19.4366 1.37789 20.1001 2.04228C20.7639 2.70701 21.1244 3.59298 21.3104 4.97558C21.4984 6.37244 21.5 8.19975 21.5 10.7028V11.5828C21.5 14.086 21.4989 15.9138 21.3112 17.3109C21.1254 18.6938 20.7649 19.5794 20.1005 20.2429C19.4358 20.9067 18.5498 21.2672 17.1672 21.4533C15.7704 21.6413 13.9431 21.6428 11.44 21.6428H10.56C8.0568 21.6428 6.22904 21.6418 4.83189 21.454C3.44901 21.2682 2.56344 20.9078 1.89993 20.2434C1.23608 19.5786 0.875644 18.6927 0.689567 17.3101C0.501571 15.9132 0.5 14.0859 0.5 11.5828V10.7028Z" stroke="black"/>
<path d="M11.4605 15.5939C6.76782 15.5939 4.09303 12.3768 3.98047 7.02417H6.33396C6.4107 10.9535 8.1441 12.6173 9.51628 12.9591V7.02417H11.7296V10.4132C13.0844 10.2669 14.5087 8.72277 14.9887 7.02417H17.202C16.8336 9.11775 15.2895 10.6618 14.1915 11.2963C15.2895 11.8079 17.0474 13.1576 17.7167 15.5939H15.2762C14.7533 13.9567 13.4497 12.6981 11.7255 12.5242V15.5939H11.4605Z" fill="black"/>
</svg>
