<svg width="22" height="23" viewBox="0 0 22 23" fill="none" xmlns="http://www.w3.org/2000/svg">
<g clip-path="url(#clip0_101_734)">
<path d="M0.5 10.7028C0.5 8.19962 0.50106 6.37186 0.688812 4.97472C0.874648 3.59183 1.23506 2.70626 1.89946 2.04275C2.56419 1.3789 3.45016 1.01847 4.83276 0.832389C6.22962 0.644393 8.05693 0.642822 10.56 0.642822H11.44C13.9432 0.642822 15.771 0.643883 17.1681 0.831635C18.551 1.01747 19.4366 1.37789 20.1001 2.04228L20.4539 1.68896L20.1001 2.04228C20.7639 2.70701 21.1244 3.59298 21.3104 4.97558C21.4984 6.37244 21.5 8.19975 21.5 10.7028V11.5828C21.5 14.086 21.4989 15.9138 21.3112 17.3109C21.1254 18.6938 20.7649 19.5794 20.1005 20.2429C19.4358 20.9067 18.5498 21.2672 17.1672 21.4533C15.7704 21.6413 13.9431 21.6428 11.44 21.6428H10.56C8.0568 21.6428 6.22904 21.6418 4.83189 21.454C3.44901 21.2682 2.56344 20.9078 1.89993 20.2434C1.23608 19.5786 0.875643 18.6927 0.689566 17.3101C0.501571 15.9132 0.5 14.0859 0.5 11.5828V10.7028Z" stroke="black"/>
<path d="M5.07228 17.1667L5.92158 14.0641C5.26374 12.9224 5.00094 11.5955 5.17394 10.2892C5.34695 8.98286 5.94608 7.77011 6.87846 6.83895C7.81084 5.90779 9.02437 5.31024 10.3309 5.13895C11.6374 4.96765 12.964 5.23218 14.1049 5.89151C15.2458 6.55085 16.1373 7.56817 16.6412 8.78573C17.1451 10.0033 17.2333 11.3531 16.892 12.6258C16.5507 13.8986 15.799 15.0232 14.7536 15.8253C13.7081 16.6274 12.4272 17.0622 11.1095 17.0623C10.1102 17.0625 9.12688 16.812 8.24949 16.3337L5.07228 17.1667ZM8.3907 15.2501L8.57284 15.3575C9.33943 15.812 10.2142 16.0516 11.1054 16.0513C12.2083 16.0511 13.2799 15.6844 14.1517 15.0089C15.0235 14.3334 15.6462 13.3873 15.9218 12.3193C16.1973 11.2514 16.1102 10.1222 15.6742 9.10912C15.2381 8.09608 14.4777 7.25667 13.5126 6.72281C12.5475 6.18896 11.4324 5.99094 10.3425 6.15987C9.25256 6.32881 8.24969 6.85512 7.49148 7.65608C6.73327 8.45704 6.26272 9.48725 6.15376 10.5848C6.04481 11.6823 6.30365 12.7849 6.88958 13.7193L7.00828 13.9076L6.50586 15.7443L8.3907 15.2501Z" fill="black"/>
<path fill-rule="evenodd" clip-rule="evenodd" d="M14.1209 12.4996C14.0841 12.4372 13.9838 12.3973 13.8344 12.3247C13.685 12.252 12.9493 11.8877 12.8112 11.8386C12.673 11.7895 12.5748 11.7629 12.4745 11.9133C12.3742 12.0637 12.0887 12.3994 12.0007 12.4996C11.9127 12.5999 11.8268 12.6122 11.6774 12.5375C11.2365 12.361 10.8294 12.1097 10.474 11.7946C10.147 11.4921 9.86669 11.1428 9.64214 10.7581C9.55516 10.6087 9.63293 10.5278 9.70763 10.4511C9.78232 10.3743 9.85702 10.2761 9.93172 10.1891C9.99316 10.1134 10.0435 10.0294 10.0811 9.93945C10.1012 9.89826 10.1106 9.85268 10.1085 9.8069C10.1063 9.76113 10.0927 9.71663 10.0688 9.6775C10.032 9.6028 9.73219 8.86605 9.60837 8.56624C9.48456 8.26643 9.36279 8.31452 9.27172 8.3094C9.18065 8.30429 9.08446 8.3094 8.98418 8.3094C8.91033 8.31243 8.83783 8.33029 8.77103 8.36194C8.70422 8.39358 8.64448 8.43836 8.59535 8.49359C8.42616 8.65392 8.2922 8.84771 8.202 9.06263C8.1118 9.27756 8.06734 9.50891 8.07144 9.74196C8.07144 10.4777 8.60763 11.1888 8.6854 11.2891C8.76316 11.3894 9.74037 12.8997 11.2435 13.5474C11.5221 13.6679 11.807 13.7731 12.0969 13.8626C12.4017 13.956 12.7242 13.9763 13.0383 13.922C13.3259 13.879 13.9234 13.5608 14.0483 13.2057C14.1731 12.8506 14.1629 12.5621 14.1209 12.4996Z" fill="black"/>
</g>
<defs>
<clipPath id="clip0_101_734">
<rect width="22" height="22" fill="white" transform="translate(0 0.142822)"/>
</clipPath>
</defs>
</svg>
