<svg width="25" height="26" viewBox="0 0 25 26" fill="none" xmlns="http://www.w3.org/2000/svg">
<path d="M13.5415 15.5074H12.4998C12.0727 15.5074 11.7185 15.1532 11.7185 14.7261C11.7185 14.2991 12.0727 13.9449 12.4998 13.9449H13.5415C14.2602 13.9449 14.8435 13.3616 14.8435 12.6428V3.00739H6.24979C5.02062 3.00739 3.89559 3.67403 3.29143 4.74695C3.08309 5.12195 2.60397 5.25741 2.22897 5.04907C1.85397 4.84074 1.71851 4.36155 1.92685 3.98655C2.80185 2.42405 4.45812 1.44489 6.24979 1.44489H15.6248C16.0519 1.44489 16.406 1.79905 16.406 2.22614V12.6428C16.406 14.2261 15.1248 15.5074 13.5415 15.5074Z" fill="#292D32"/>
<path d="M19.7916 21.7574H18.75C18.3229 21.7574 17.9687 21.4032 17.9687 20.9761C17.9687 20.2574 17.3854 19.6741 16.6666 19.6741C15.9479 19.6741 15.3646 20.2574 15.3646 20.9761C15.3646 21.4032 15.0104 21.7574 14.5833 21.7574H10.4166C9.98956 21.7574 9.6354 21.4032 9.6354 20.9761C9.6354 20.2574 9.05206 19.6741 8.33331 19.6741C7.61456 19.6741 7.03123 20.2574 7.03123 20.9761C7.03123 21.4032 6.67706 21.7574 6.24998 21.7574H5.20831C3.05206 21.7574 1.30206 20.0074 1.30206 17.8511C1.30206 17.4241 1.65623 17.0699 2.08331 17.0699C2.5104 17.0699 2.86456 17.4241 2.86456 17.8511C2.86456 19.1428 3.91665 20.1949 5.20831 20.1949H5.57287C5.91662 18.997 7.02081 18.1116 8.33331 18.1116C9.64581 18.1116 10.75 18.997 11.0938 20.1949H13.9166C14.2604 18.997 15.3646 18.1116 16.6771 18.1116C17.9896 18.1116 19.0937 18.997 19.4375 20.1949H19.7916C21.0833 20.1949 22.1354 19.1428 22.1354 17.8511V15.5074H19.7916C18.7916 15.5074 17.9687 14.6845 17.9687 13.6845V10.5595C17.9687 9.55947 18.7812 8.73655 19.7916 8.73655L18.6771 6.78864C18.4479 6.38239 18.0104 6.13239 17.5417 6.13239H16.4062V12.6428C16.4062 14.2261 15.125 15.5074 13.5416 15.5074H12.5C12.0729 15.5074 11.7187 15.1532 11.7187 14.7261C11.7187 14.2991 12.0729 13.9449 12.5 13.9449H13.5416C14.2604 13.9449 14.8437 13.3616 14.8437 12.6428V5.35114C14.8437 4.92405 15.1979 4.56989 15.625 4.56989H17.5417C18.5729 4.56989 19.5208 5.12198 20.0312 6.01782L21.8125 9.13239C21.9479 9.37197 21.9479 9.67406 21.8125 9.91364C21.6771 10.1532 21.4166 10.2991 21.1354 10.2991H19.7916C19.6458 10.2991 19.5312 10.4136 19.5312 10.5595V13.6845C19.5312 13.8303 19.6458 13.9449 19.7916 13.9449H22.9166C23.3437 13.9449 23.6979 14.2991 23.6979 14.7261V17.8511C23.6979 20.0074 21.9479 21.7574 19.7916 21.7574Z" fill="#292D32"/>
<path d="M8.33333 23.8407C6.75 23.8407 5.46875 22.5595 5.46875 20.9762C5.46875 19.3928 6.75 18.1116 8.33333 18.1116C9.91667 18.1116 11.1979 19.3928 11.1979 20.9762C11.1979 22.5595 9.91667 23.8407 8.33333 23.8407ZM8.33333 19.6741C7.61458 19.6741 7.03125 20.2574 7.03125 20.9762C7.03125 21.6949 7.61458 22.2782 8.33333 22.2782C9.05208 22.2782 9.63542 21.6949 9.63542 20.9762C9.63542 20.2574 9.05208 19.6741 8.33333 19.6741Z" fill="#292D32"/>
<path d="M16.6666 23.8407C15.0833 23.8407 13.8021 22.5595 13.8021 20.9762C13.8021 19.3928 15.0833 18.1116 16.6666 18.1116C18.25 18.1116 19.5312 19.3928 19.5312 20.9762C19.5312 22.5595 18.25 23.8407 16.6666 23.8407ZM16.6666 19.6741C15.9479 19.6741 15.3646 20.2574 15.3646 20.9762C15.3646 21.6949 15.9479 22.2782 16.6666 22.2782C17.3854 22.2782 17.9687 21.6949 17.9687 20.9762C17.9687 20.2574 17.3854 19.6741 16.6666 19.6741Z" fill="#292D32"/>
<path d="M22.9167 15.5074H19.7917C18.7917 15.5074 17.9688 14.6845 17.9688 13.6845V10.5595C17.9688 9.55949 18.7917 8.73657 19.7917 8.73657H21.1354C21.4166 8.73657 21.6771 8.88241 21.8125 9.13241L23.5938 12.2574C23.6563 12.372 23.6979 12.5074 23.6979 12.6428V14.7262C23.6979 15.1532 23.3438 15.5074 22.9167 15.5074ZM19.7917 10.2991C19.6458 10.2991 19.5312 10.4137 19.5312 10.5595V13.6845C19.5312 13.8303 19.6458 13.9449 19.7917 13.9449H22.1354V12.8512L20.6771 10.2991H19.7917Z" fill="#292D32"/>
<path d="M8.33331 9.25739H2.08331C1.65623 9.25739 1.30206 8.90322 1.30206 8.47614C1.30206 8.04905 1.65623 7.69489 2.08331 7.69489H8.33331C8.7604 7.69489 9.11456 8.04905 9.11456 8.47614C9.11456 8.90322 8.7604 9.25739 8.33331 9.25739Z" fill="#292D32"/>
<path d="M6.24998 12.3824H2.08331C1.65623 12.3824 1.30206 12.0282 1.30206 11.6011C1.30206 11.1741 1.65623 10.8199 2.08331 10.8199H6.24998C6.67706 10.8199 7.03123 11.1741 7.03123 11.6011C7.03123 12.0282 6.67706 12.3824 6.24998 12.3824Z" fill="#292D32"/>
<path d="M4.16665 15.5074H2.08331C1.65623 15.5074 1.30206 15.1532 1.30206 14.7261C1.30206 14.2991 1.65623 13.9449 2.08331 13.9449H4.16665C4.59373 13.9449 4.9479 14.2991 4.9479 14.7261C4.9479 15.1532 4.59373 15.5074 4.16665 15.5074Z" fill="#292D32"/>
</svg>
