<svg width="25" height="26" viewBox="0 0 25 26" fill="none" xmlns="http://www.w3.org/2000/svg">
<path d="M13.0208 23.8407H4.24998C2.61456 23.8407 1.27081 22.5282 1.27081 20.9032V5.4449C1.27081 3.85115 1.86456 2.61156 2.9479 1.93448C4.04165 1.24698 5.45831 1.26781 6.92706 1.99698L11.5521 4.26781C12.8125 4.89281 13.8021 6.46573 13.8021 7.86156V23.0595C13.8021 23.4866 13.4479 23.8407 13.0208 23.8407ZM4.74998 3.0074C4.3854 3.0074 4.05206 3.09073 3.77081 3.26781C3.16665 3.64281 2.83331 4.42406 2.83331 5.4449V20.9032C2.83331 21.6636 3.46873 22.2782 4.24998 22.2782H12.2396V7.86156C12.2396 7.05948 11.5937 6.02823 10.8541 5.67406L6.22915 3.40323C5.6979 3.14281 5.1979 3.0074 4.74998 3.0074Z" fill="#292D32"/>
<path d="M19.5937 23.8408H13.0208C12.5937 23.8408 12.2396 23.4866 12.2396 23.0595V10.997C12.2396 10.7574 12.3437 10.5387 12.5312 10.3928C12.7187 10.247 12.9479 10.1845 13.1875 10.2366L13.6771 10.3408L20.4896 11.8616C22.5625 12.3199 23.6041 13.5387 23.6666 15.6116C23.6771 15.6116 23.6771 15.7158 23.6771 15.8303V19.7678C23.6666 22.4345 22.2604 23.8408 19.5937 23.8408ZM13.8021 22.2783H19.5937C21.4271 22.2783 22.1041 21.6012 22.1041 19.7678V15.747C22.0521 14.3199 21.5104 13.6845 20.1458 13.3824L13.8021 11.9658V22.2783Z" fill="#292D32"/>
<path d="M9.34377 10.2991H5.72919C5.3021 10.2991 4.94794 9.94491 4.94794 9.51782C4.94794 9.09074 5.3021 8.73657 5.72919 8.73657H9.34377C9.77085 8.73657 10.125 9.09074 10.125 9.51782C10.125 9.94491 9.78127 10.2991 9.34377 10.2991Z" fill="#292D32"/>
<path d="M9.34377 14.4657H5.72919C5.3021 14.4657 4.94794 14.1116 4.94794 13.6845C4.94794 13.2574 5.3021 12.9032 5.72919 12.9032H9.34377C9.77085 12.9032 10.125 13.2574 10.125 13.6845C10.125 14.1116 9.78127 14.4657 9.34377 14.4657Z" fill="#292D32"/>
<path d="M15.8542 18.6324C14.1354 18.6324 12.7292 17.2262 12.7292 15.5074V11.1012C12.7292 10.8616 12.8334 10.6428 13.0209 10.4866C13.2084 10.3303 13.4479 10.2782 13.6771 10.3303L18.3646 11.3824C18.7188 11.4657 18.9792 11.7782 18.9792 12.1428V15.497C18.9792 17.2262 17.5834 18.6324 15.8542 18.6324ZM14.2917 12.0803V15.5074C14.2917 16.372 14.9896 17.0699 15.8542 17.0699C16.7188 17.0699 17.4167 16.372 17.4167 15.5074V12.7782L14.2917 12.0803Z" fill="#292D32"/>
<path d="M20.5417 18.6324C18.8229 18.6324 17.4167 17.2262 17.4167 15.5074V12.1533C17.4167 11.9137 17.5209 11.6949 17.7084 11.5491C17.8959 11.4033 18.1354 11.3408 18.3646 11.3928L20.4792 11.8616C22.5521 12.3199 23.5938 13.5387 23.6563 15.6116C23.6563 15.6324 23.6563 15.6533 23.6563 15.6741C23.5729 17.3303 22.2084 18.6324 20.5417 18.6324ZM18.9792 13.122V15.5074C18.9792 16.372 19.6771 17.0699 20.5417 17.0699C21.3646 17.0699 22.0417 16.4345 22.0938 15.622C22.0417 14.3095 21.5 13.6845 20.1459 13.3824L18.9792 13.122Z" fill="#292D32"/>
</svg>
