<svg width="25" height="26" viewBox="0 0 25 26" fill="none" xmlns="http://www.w3.org/2000/svg">
<path d="M16.9583 23.1637H13C12.4166 23.1637 11.1458 22.9866 10.4687 22.3095L7.31248 19.872L8.27081 18.6324L11.5 21.1324C11.7604 21.3824 12.4166 21.5907 13 21.5907H16.9583C17.8958 21.5907 18.9062 20.8407 19.1146 19.997L21.6354 12.3407C21.8021 11.8824 21.7708 11.4657 21.5521 11.1637C21.3229 10.8407 20.9062 10.6532 20.3958 10.6532H16.2291C15.6875 10.6532 15.1875 10.4241 14.8437 10.0282C14.4896 9.622 14.3333 9.08033 14.4166 8.51783L14.9375 5.17408C15.0625 4.59075 14.6666 3.9345 14.1041 3.747C13.5937 3.5595 12.9375 3.83033 12.7083 4.16367L8.43748 10.5178L7.14581 9.65325L11.4166 3.29908C12.0729 2.31992 13.5104 1.85117 14.6354 2.27825C15.9375 2.70533 16.7708 4.14283 16.4791 5.47617L15.9687 8.75742C15.9583 8.83033 15.9583 8.9345 16.0312 9.01783C16.0833 9.06992 16.1562 9.10117 16.2396 9.10117H20.4062C21.4271 9.10117 22.3125 9.52825 22.8333 10.2678C23.3437 10.9866 23.4479 11.9345 23.1146 12.8512L20.625 20.4345C20.2396 21.9449 18.6354 23.1637 16.9583 23.1637Z" fill="#292D32"/>
<path d="M5.60419 22.0178H4.56252C2.63544 22.0178 1.69794 21.1116 1.69794 19.2574V9.04905C1.69794 7.19489 2.63544 6.28864 4.56252 6.28864H5.60419C7.53127 6.28864 8.46877 7.19489 8.46877 9.04905V19.2574C8.46877 21.1116 7.53127 22.0178 5.60419 22.0178ZM4.56252 7.85114C3.4271 7.85114 3.26044 8.12197 3.26044 9.04905V19.2574C3.26044 20.1845 3.4271 20.4553 4.56252 20.4553H5.60419C6.7396 20.4553 6.90627 20.1845 6.90627 19.2574V9.04905C6.90627 8.12197 6.7396 7.85114 5.60419 7.85114H4.56252Z" fill="#292D32"/>
</svg>
