<svg width="25" height="26" viewBox="0 0 25 26" fill="none" xmlns="http://www.w3.org/2000/svg">
<path d="M16.844 11.4032H8.15648C7.26065 11.4032 6.57317 11.0491 6.26067 10.4449C5.94817 9.83031 6.07315 9.06989 6.59398 8.35114L10.9377 2.26781C11.7086 1.16364 13.3023 1.16364 14.0836 2.27822L18.4273 8.35114C18.9482 9.06989 19.0732 9.83031 18.7607 10.4449C18.4273 11.0491 17.7398 11.4032 16.844 11.4032ZM12.5002 2.9553C12.4065 2.9553 12.3023 3.03864 12.2086 3.16364L7.86482 9.25739C7.65649 9.53864 7.64609 9.7053 7.6565 9.73655C7.66692 9.75739 7.81274 9.84072 8.16691 9.84072H16.8544C17.1982 9.84072 17.344 9.74697 17.3648 9.72614C17.3648 9.7053 17.3544 9.53864 17.1565 9.25739L12.8127 3.17406C12.6982 3.02823 12.594 2.9553 12.5002 2.9553Z" fill="#292D32"/>
<path d="M18.3231 19.6741H6.68767C5.19809 19.6741 4.60432 18.9553 4.38557 18.5283C4.16682 18.1012 3.93765 17.2053 4.81265 15.997L8.96889 10.1637C9.11473 9.95535 9.35433 9.84076 9.60433 9.84076H15.4064C15.6564 9.84076 15.896 9.96576 16.0418 10.1637L20.1981 16.0074C21.0731 17.2053 20.8335 18.1012 20.6148 18.5283C20.396 18.9553 19.8127 19.6741 18.3231 19.6741ZM10.0002 11.4033L6.07306 16.9137C5.73973 17.372 5.7085 17.6845 5.771 17.8199C5.84392 17.9553 6.11475 18.1116 6.67725 18.1116H18.3126C18.8751 18.1116 19.1564 17.9553 19.2189 17.8199C19.2918 17.6845 19.2502 17.372 18.9168 16.9137L14.9898 11.3928H10.0002V11.4033Z" fill="#292D32"/>
<path d="M12.5 23.8407C12.0729 23.8407 11.7188 23.4866 11.7188 23.0595V18.8928C11.7188 18.4657 12.0729 18.1116 12.5 18.1116C12.9271 18.1116 13.2812 18.4657 13.2812 18.8928V23.0595C13.2812 23.4866 12.9271 23.8407 12.5 23.8407Z" fill="#292D32"/>
</svg>
